<svg width="720" height="850" viewBox="0 0 720 850" fill="none" xmlns="http://www.w3.org/2000/svg">
<g clip-path="url(#clip0)">
<path d="M312.028 324.804L219.798 378.905C196.416 371.733 166.63 373.947 146.98 385.473C123.067 399.506 123.195 422.065 147.328 435.678C153.038 438.839 159.14 441.232 165.477 442.795C170.215 443.978 175.034 444.81 179.894 445.283C199.069 447.113 219.524 443.728 234.289 435.074C252.145 424.59 256.573 409.459 247.608 396.652L260.415 389.187L260.049 381.119H273.442L273.094 373.544L286.487 373.453L286.158 365.897H299.532L299.203 358.322H312.596L312.248 350.766L326.555 350.656L330.91 348.095L335.722 328.243L312.028 324.804ZM182.255 428.304C178.762 430.112 174.891 431.069 170.958 431.098C167.025 431.126 163.141 430.226 159.622 428.469C153.347 424.901 153.292 419.065 159.531 415.406C163.024 413.598 166.894 412.641 170.827 412.612C174.76 412.584 178.644 413.484 182.163 415.241C188.439 418.809 188.475 424.663 182.255 428.304Z" fill="#E4E1E1"/>
<path d="M362.433 667.014L238.02 595.513C229.64 590.683 230.702 582.23 240.362 576.65L361.116 506.979C370.776 501.49 385.395 500.776 393.774 505.625L518.187 577.108C526.567 581.956 525.506 590.39 515.845 595.971L395.092 665.66C385.431 671.241 370.813 671.844 362.433 667.014Z" fill="#E4E1E1"/>
<path d="M508.233 504.912L486.735 492.489L565.994 446.749C569.744 444.59 569.744 441.077 565.994 438.918L485.015 392.153C482.911 391.089 480.586 390.534 478.228 390.534C475.869 390.534 473.544 391.089 471.44 392.153L392.163 438.003L370.665 425.58L449.942 379.84C465.53 370.838 490.907 370.838 506.513 379.84L587.492 426.586C603.08 435.588 603.08 450.243 587.492 459.245L508.233 504.912Z" fill="#22B0F1"/>
<path d="M542.924 510.364C542.924 498.874 535.935 485.537 527.318 480.56L383.694 397.642C379.834 395.41 376.376 395.246 373.576 396.764L202.106 496.404L367.923 621.366L536.85 523.318C537.383 523.086 537.887 522.791 538.35 522.44C541.168 520.336 542.924 516.109 542.924 510.364Z" fill="#CEE8F3"/>
<path d="M367.921 621.364L536.848 523.316C537.381 523.084 537.885 522.789 538.348 522.437C541.166 520.297 542.922 516.107 542.922 510.362C542.789 504.584 541.351 498.911 538.714 493.768L346.13 604.953L367.921 621.364Z" fill="#1298ED"/>
<path d="M357.127 620.962L213.503 538.063C204.886 533.086 197.896 519.767 197.896 508.24C197.896 496.732 204.886 491.463 213.503 496.439L357.127 579.357C365.744 584.333 372.733 597.653 372.733 609.179C372.733 620.614 365.744 625.884 357.127 620.962Z" fill="#22B0F1"/>
<path d="M335.609 592.949L318.337 582.996C317.392 582.316 316.618 581.424 316.078 580.392C315.538 579.359 315.247 578.215 315.227 577.05C315.227 574.763 316.618 573.702 318.337 574.69L335.609 584.661C336.558 585.339 337.333 586.23 337.874 587.263C338.414 588.296 338.704 589.442 338.719 590.608C338.719 592.895 337.329 593.937 335.609 592.949Z" fill="white"/>
<path d="M205.965 300.965L235.459 317.743L265.574 300.069L265.501 292.385L265.244 292.531L265.208 292L278.601 291.909L278.527 284.334L291.646 284.243L291.572 276.687L304.709 276.577L304.618 269.021L317.754 268.929L317.681 261.354L331.714 261.263L336.068 258.702L340.899 238.85L340.807 231.166L338.484 238.521L317.242 235.685L205.965 300.965Z" fill="#1298ED"/>
<path d="M235.384 310.058L265.499 292.384L265.133 284.315L278.526 284.224L278.178 276.649L291.571 276.558L291.223 269.001L304.616 268.91L304.287 261.335L317.679 261.244L317.332 253.688L331.639 253.578L335.994 251.016L340.806 231.165L317.149 228L205.872 293.299L235.384 310.058Z" fill="#CEE8F3"/>
<path d="M255.432 298.295C251.802 293.402 247.135 289.372 241.765 286.494C237.28 284.001 232.538 282.001 227.622 280.529L205.887 293.337L235.38 310.114L255.432 298.295Z" fill="#1298ED"/>
<path d="M340.003 234.493L340.808 231.163L336.838 230.633L242.815 285.795L247.773 288.613L340.003 234.493Z" fill="#22B0F1"/>
<path d="M134.647 325.207L134.318 314.284L137.812 321.676L134.647 325.207Z" fill="#D8D8D8"/>
<path d="M152.849 349.798C176.963 363.483 215.897 363.209 239.81 349.176C251.794 342.15 257.722 332.984 257.63 323.872L257.301 312.291L255.307 314.505C252.526 308.796 247.238 303.417 239.408 298.99C215.312 285.286 176.378 285.56 152.465 299.593C128.552 313.627 128.717 336.094 152.849 349.798ZM187.612 329.361C193.887 332.929 193.924 338.765 187.703 342.424C184.21 344.232 180.34 345.189 176.407 345.218C172.474 345.246 168.59 344.346 165.071 342.589C158.795 339.021 158.74 333.167 164.979 329.507C168.475 327.707 172.346 326.755 176.278 326.73C180.21 326.705 184.093 327.606 187.612 329.361Z" fill="#1298ED"/>
<path d="M152.504 338.874C176.6 352.56 215.534 352.285 239.447 338.271C263.36 324.256 263.232 301.678 239.099 288.066C214.967 274.454 176.051 274.637 152.138 288.67C128.225 302.703 128.39 325.171 152.504 338.874ZM187.267 318.438C193.542 322.005 193.579 327.86 187.358 331.501C183.865 333.309 179.995 334.266 176.062 334.294C172.129 334.323 168.245 333.422 164.726 331.666C158.45 328.098 158.414 322.243 164.726 318.602C168.214 316.801 172.078 315.847 176.004 315.818C179.93 315.79 183.807 316.687 187.322 318.438H187.267Z" fill="#F6F5FB"/>
<path d="M180.443 344.856C175.221 345.76 169.847 344.965 165.111 342.587C160.61 340.026 159.329 336.293 161.25 333.036L150.273 324.382L138.911 311.575C130.129 324.382 134.758 339.568 152.761 349.814C161.138 354.325 170.285 357.229 179.729 358.376L180.443 344.856Z" fill="#22B0F1"/>
<path d="M152.504 338.874C158.207 342.038 164.304 344.432 170.636 345.991C175.374 347.173 180.193 348.005 185.053 348.48C204.227 350.309 224.7 346.925 239.447 338.271C263.36 324.237 263.232 301.678 239.099 288.066C214.967 274.454 176.051 274.637 152.138 288.67C128.225 302.703 128.39 325.171 152.504 338.874ZM187.267 318.438C193.542 322.005 193.579 327.86 187.358 331.501C183.865 333.309 179.995 334.266 176.062 334.294C172.129 334.323 168.245 333.422 164.726 331.666C158.45 328.098 158.414 322.243 164.726 318.602C168.214 316.801 172.078 315.847 176.004 315.818C179.93 315.79 183.807 316.687 187.322 318.438H187.267Z" fill="#CEE8F3"/>
<path d="M141.102 313.989C142.273 307 147.469 300.158 156.709 294.742C177.969 282.264 212.603 281.935 234.065 294.211C244.713 300.249 250.11 308.245 250.22 316.276C251.757 307.128 246.451 297.761 234.321 290.863C212.859 278.678 178.225 278.916 156.947 291.412C146.262 297.688 140.974 305.866 141.102 313.989Z" fill="#1298ED"/>
<path d="M126.596 413.356C122.374 413.394 118.216 412.322 114.539 410.246C105.904 405.342 101.092 395.481 101 382.509C100.836 358.816 117.32 329.78 137.757 317.796C148.954 311.228 159.877 310.313 168.513 315.216C172.238 317.349 175.327 320.438 177.459 324.163C180.643 329.906 182.253 336.388 182.125 342.953C182.29 366.646 165.805 395.682 145.368 407.666C139.73 411.202 133.249 413.167 126.596 413.356ZM156.51 320.906C151.441 321.114 146.517 322.661 142.24 325.389C124.181 335.964 109.618 361.615 109.764 382.527C109.764 392.279 113.076 399.469 118.912 402.781C124.749 406.093 132.561 405.196 140.977 400.256C159.017 389.681 173.581 364.03 173.434 343.118C173.575 338.08 172.402 333.092 170.031 328.645C168.699 326.244 166.734 324.253 164.351 322.889C161.967 321.524 159.256 320.839 156.51 320.906Z" fill="#81CC35"/>
<path d="M167.778 340.043L184.94 344.233L187.41 331.426C183.917 333.233 180.047 334.19 176.114 334.219C172.181 334.248 168.297 333.347 164.778 331.59L167.778 340.043Z" fill="#CEE8F3"/>
<path d="M152.5 338.874C158.202 342.037 164.299 344.431 170.631 345.991C175.369 347.172 180.188 348.004 185.048 348.479C204.222 350.309 224.696 346.924 239.442 338.27L169.551 336.696L152.5 338.874Z" fill="#CEE8F3"/>
<path d="M185 348.5C179.85 347.59 168.095 345.471 163.148 343.775V354.497C168.011 356.251 173.028 357.544 178.133 358.357C194.142 360.461 185 348.5 185 348.5Z" fill="#1298ED"/>
<path d="M167.179 345.076C163.801 344.1 160.499 342.877 157.299 341.417C147.95 337.026 159.769 353.254 159.769 353.254C159.769 353.254 162.953 354.517 167.179 355.816V345.076Z" fill="#22B0F1"/>
<path d="M381.585 533.274C373.29 538.063 359.734 538.063 351.438 533.274L288.075 496.691C279.779 491.902 279.779 484.075 288.075 479.285L351.438 442.703C359.734 437.913 373.29 437.913 381.585 442.703L444.915 479.266C453.21 484.055 453.21 491.882 444.915 496.672L381.552 533.254L381.585 533.274Z" fill="#29B6F6"/>
<path d="M405.055 473.269C402.897 472.023 400.03 471.342 396.995 471.342L377.403 471.361L377.369 460.049C377.403 458.278 376.189 456.603 374.031 455.357C369.58 452.787 362.363 452.787 357.912 455.357C353.461 457.927 353.461 462.094 357.912 464.664L369.512 471.361L358.114 471.361L358.114 474.515L371.94 474.515L371.94 482.575L377.403 482.575L377.403 475.956L388.902 482.595C393.353 485.165 400.57 485.165 405.021 482.595C409.506 480.005 409.506 475.839 405.055 473.269ZM361.79 462.425C359.463 461.081 359.497 458.92 361.79 457.596C364.083 456.233 367.826 456.253 370.153 457.596C371.266 458.239 371.906 459.115 371.906 460.049L371.94 468.324L361.756 462.444L361.79 462.425ZM392.814 480.336L382.664 474.476L397.029 474.476C398.58 474.476 400.098 474.846 401.211 475.488C403.537 476.832 403.504 478.993 401.211 480.317C398.884 481.699 395.141 481.68 392.814 480.336Z" fill="#99DE54"/>
<path d="M381.688 468.695L389.782 468.695L395.346 465.482L387.252 460.81L381.688 464.022L381.688 468.695Z" fill="white"/>
<path d="M407.553 497.333L378.721 513.98C373.966 516.725 368.672 517.99 362.872 517.757C357.915 517.542 352.654 515.868 347.158 512.695C341.728 509.56 338.828 506.562 338.491 503.68C338.086 500.332 340.278 497.275 345.033 494.53L367.424 481.602L367.424 476.93L359.399 476.93L337.007 489.857C330.128 493.829 327.026 498.385 327.633 503.525C328.004 506.854 329.959 510.008 333.466 512.967C334.714 513.96 336.839 515.303 339.772 516.997C342.74 518.711 345.033 519.918 346.685 520.599C352.856 523.072 359.466 524.24 366.446 524.104C374.101 523.928 380.913 522.098 386.882 518.652L415.714 502.006L407.587 497.314L407.553 497.333Z" fill="white"/>
</g>
<rect x="12" y="-0.572266" width="237.573" height="12" transform="rotate(90 12 -0.572266)" fill="#E4E1E1"/>
<circle cx="57.3395" cy="804.721" r="3.11761" fill="#E4E1E1"/>
<circle cx="69.8102" cy="804.721" r="3.11761" fill="#E4E1E1"/>
<circle cx="82.2812" cy="804.721" r="3.11761" fill="#E4E1E1"/>
<circle cx="94.749" cy="804.721" r="3.11761" fill="#E4E1E1"/>
<circle cx="107.22" cy="804.721" r="3.11761" fill="#E4E1E1"/>
<circle cx="119.691" cy="804.721" r="3.11761" fill="#E4E1E1"/>
<circle cx="57.3393" cy="817.192" r="3.11761" fill="#E4E1E1"/>
<circle cx="69.8102" cy="817.192" r="3.11761" fill="#E4E1E1"/>
<circle cx="82.2812" cy="817.192" r="3.11761" fill="#E4E1E1"/>
<circle cx="94.749" cy="817.192" r="3.11761" fill="#E4E1E1"/>
<circle cx="107.22" cy="817.192" r="3.11761" fill="#E4E1E1"/>
<circle cx="119.691" cy="817.192" r="3.11761" fill="#E4E1E1"/>
<circle cx="57.3393" cy="829.663" r="3.11761" fill="#E4E1E1"/>
<circle cx="69.8102" cy="829.663" r="3.11761" fill="#E4E1E1"/>
<circle cx="82.2812" cy="829.663" r="3.11761" fill="#E4E1E1"/>
<circle cx="94.749" cy="829.663" r="3.11761" fill="#E4E1E1"/>
<circle cx="107.22" cy="829.663" r="3.11761" fill="#E4E1E1"/>
<circle cx="119.691" cy="829.663" r="3.11761" fill="#E4E1E1"/>
<circle cx="57.3393" cy="842.133" r="3.11761" fill="#E4E1E1"/>
<circle cx="69.8102" cy="842.133" r="3.11761" fill="#E4E1E1"/>
<circle cx="82.2812" cy="842.133" r="3.11761" fill="#E4E1E1"/>
<circle cx="94.749" cy="842.133" r="3.11761" fill="#E4E1E1"/>
<circle cx="107.22" cy="842.133" r="3.11761" fill="#E4E1E1"/>
<circle cx="119.691" cy="842.133" r="3.11761" fill="#E4E1E1"/>
<circle cx="132.163" cy="804.722" r="3.11761" fill="#E4E1E1"/>
<circle cx="144.634" cy="804.722" r="3.11761" fill="#E4E1E1"/>
<circle cx="157.105" cy="804.722" r="3.11761" fill="#E4E1E1"/>
<circle cx="169.573" cy="804.722" r="3.11761" fill="#E4E1E1"/>
<circle cx="182.044" cy="804.722" r="3.11761" fill="#E4E1E1"/>
<circle cx="194.515" cy="804.722" r="3.11761" fill="#E4E1E1"/>
<circle cx="132.164" cy="817.192" r="3.11761" fill="#E4E1E1"/>
<circle cx="144.634" cy="817.192" r="3.11761" fill="#E4E1E1"/>
<circle cx="157.105" cy="817.192" r="3.11761" fill="#E4E1E1"/>
<circle cx="169.573" cy="817.192" r="3.11761" fill="#E4E1E1"/>
<circle cx="182.044" cy="817.192" r="3.11761" fill="#E4E1E1"/>
<circle cx="194.515" cy="817.192" r="3.11761" fill="#E4E1E1"/>
<circle cx="132.164" cy="829.664" r="3.11761" fill="#E4E1E1"/>
<circle cx="144.634" cy="829.664" r="3.11761" fill="#E4E1E1"/>
<circle cx="157.105" cy="829.664" r="3.11761" fill="#E4E1E1"/>
<circle cx="169.573" cy="829.664" r="3.11761" fill="#E4E1E1"/>
<circle cx="182.044" cy="829.664" r="3.11761" fill="#E4E1E1"/>
<circle cx="194.515" cy="829.664" r="3.11761" fill="#E4E1E1"/>
<circle cx="132.164" cy="842.134" r="3.11761" fill="#E4E1E1"/>
<circle cx="144.634" cy="842.134" r="3.11761" fill="#E4E1E1"/>
<circle cx="157.105" cy="842.134" r="3.11761" fill="#E4E1E1"/>
<circle cx="169.573" cy="842.134" r="3.11761" fill="#E4E1E1"/>
<circle cx="182.044" cy="842.134" r="3.11761" fill="#E4E1E1"/>
<circle cx="194.515" cy="842.134" r="3.11761" fill="#E4E1E1"/>
<path d="M532.285 177.883L530.454 176.021L529.475 175.053L508.101 153.673L508.111 153.657L487.361 132.907L511.572 108.697L532.295 129.42L581.716 80L605.926 104.21L553.712 156.451L532.285 177.883ZM519.275 153.625L532.285 166.635L532.311 166.609L532.327 166.625L545.3 153.652L548.093 150.832L594.71 104.216L581.726 91.2321L532.306 140.653L511.582 119.929L498.599 132.912L519.296 153.609L519.275 153.625Z" fill="#E4E1E1"/>
<path d="M601.852 726.394L600.5 725.041L599.148 726.394L590.499 735.042L589.147 736.394L590.499 737.747L594.91 742.157L604.492 751.901L594.93 761.463L590.529 765.681L589.133 767.018L590.485 768.4L599.133 777.232L600.486 778.613L601.852 777.246L606.268 772.83L616.006 763.092L625.563 772.81L629.787 777.217L631.138 778.628L632.52 777.246L641.352 768.414L642.733 767.033L641.323 765.681L636.916 761.457L627.198 751.901L636.936 742.163L641.352 737.747L642.719 736.38L641.338 735.028L632.505 726.38L631.124 725.027L629.787 726.423L625.569 730.824L616.006 740.386L606.263 730.804L601.852 726.394Z" stroke="#E4E1E1" stroke-width="3.82511"/>
<defs>
<clipPath id="clip0">
<rect width="498.183" height="442.27" fill="white" transform="translate(101 228)"/>
</clipPath>
</defs>
</svg>
