<svg width="19" height="18" viewBox="0 0 19 18" fill="none" xmlns="http://www.w3.org/2000/svg">
<path d="M3.98918 10.878L3.36262 13.217L1.07258 13.2654C0.388195 11.996 0 10.5437 0 9.00034C0 7.50793 0.362953 6.10055 1.00631 4.86133H1.0068L3.04559 5.23511L3.9387 7.26166C3.75177 7.80661 3.64989 8.39161 3.64989 9.00034C3.64996 9.661 3.76963 10.294 3.98918 10.878Z" fill="#FBBB00"/>
<path d="M17.8441 7.31836C17.9475 7.86279 18.0014 8.42504 18.0014 8.99967C18.0014 9.64402 17.9336 10.2725 17.8046 10.8788C17.3664 12.9419 16.2216 14.7434 14.6358 16.0182L14.6353 16.0177L12.0673 15.8867L11.7039 13.6179C12.7562 13.0007 13.5786 12.035 14.0118 10.8788H9.19922V7.31836H14.082H17.8441V7.31836Z" fill="#518EF8"/>
<path d="M14.6355 16.0173L14.636 16.0178C13.0937 17.2575 11.1344 17.9993 9.00164 17.9993C5.57422 17.9993 2.59434 16.0836 1.07422 13.2644L3.99082 10.877C4.75086 12.9054 6.70762 14.3494 9.00164 14.3494C9.98766 14.3494 10.9114 14.0828 11.7041 13.6175L14.6355 16.0173Z" fill="#28B446"/>
<path d="M14.7462 2.07197L11.8306 4.45894C11.0102 3.94615 10.0404 3.64992 9.0015 3.64992C6.65556 3.64992 4.6622 5.16013 3.94023 7.26131L1.0083 4.86098H1.00781C2.50568 1.97307 5.52314 0 9.0015 0C11.1852 0 13.1875 0.777867 14.7462 2.07197Z" fill="#F14336"/>
</svg>
