<svg width="499" height="443" viewBox="0 0 499 443" fill="none" xmlns="http://www.w3.org/2000/svg">
<g clip-path="url(#clip0)">
<path d="M211.029 96.8047L118.799 150.906C95.4162 143.734 65.6303 145.948 45.9804 157.474C22.0674 171.507 22.1955 194.066 46.328 207.679C52.0382 210.84 58.1408 213.233 64.4776 214.796C69.2156 215.979 74.0345 216.811 78.8949 217.284C98.0692 219.114 118.524 215.729 133.289 207.075C151.146 196.591 155.574 181.46 146.609 168.653L159.416 161.188L159.05 153.12H172.443L172.095 145.545L185.488 145.454L185.158 137.898H198.533L198.203 130.323H211.596L211.248 122.767L225.556 122.657L229.91 120.096L234.722 100.244L211.029 96.8047ZM81.2551 200.305C77.7621 202.113 73.8916 203.07 69.9587 203.099C66.0259 203.127 62.1418 202.227 58.6229 200.47C52.3474 196.902 52.2925 191.066 58.5314 187.407C62.0244 185.599 65.8949 184.642 69.8278 184.613C73.7607 184.585 77.6447 185.485 81.1636 187.242C87.4391 190.81 87.4758 196.664 81.2551 200.305Z" fill="#E4E1E1"/>
<path d="M261.434 439.014L137.021 367.513C128.642 362.683 129.703 354.23 139.363 348.65L260.117 278.979C269.777 273.49 284.396 272.776 292.775 277.625L417.188 349.108C425.568 353.956 424.507 362.39 414.847 367.971L294.093 437.66C284.432 443.241 269.814 443.844 261.434 439.014Z" fill="#E4E1E1"/>
<path d="M407.232 276.911L385.734 264.488L464.993 218.748C468.743 216.589 468.743 213.076 464.993 210.917L384.014 164.152C381.91 163.088 379.585 162.533 377.226 162.533C374.868 162.533 372.543 163.088 370.439 164.152L291.162 210.002L269.664 197.579L348.941 151.839C364.529 142.837 389.906 142.837 405.512 151.839L486.49 198.585C502.079 207.587 502.079 222.242 486.49 231.244L407.232 276.911Z" fill="#22B0F1"/>
<path d="M441.924 282.364C441.924 270.874 434.935 257.537 426.317 252.56L282.694 169.642C278.833 167.41 275.375 167.246 272.576 168.764L101.105 268.404L266.922 393.366L435.85 295.318C436.383 295.086 436.887 294.791 437.35 294.44C440.168 292.336 441.924 288.109 441.924 282.364Z" fill="#CEE8F3"/>
<path d="M266.919 393.364L435.847 295.316C436.38 295.084 436.884 294.789 437.347 294.437C440.165 292.297 441.921 288.107 441.921 282.362C441.788 276.584 440.349 270.911 437.713 265.768L245.129 376.953L266.919 393.364Z" fill="#1298ED"/>
<path d="M256.125 392.962L112.501 310.063C103.884 305.086 96.8945 291.767 96.8945 280.24C96.8945 268.732 103.884 263.463 112.501 268.439L256.125 351.357C264.742 356.333 271.731 369.653 271.731 381.179C271.731 392.614 264.742 397.884 256.125 392.962Z" fill="#22B0F1"/>
<path d="M234.608 364.949L217.337 354.996C216.391 354.316 215.618 353.424 215.078 352.392C214.538 351.359 214.246 350.215 214.227 349.05C214.227 346.763 215.617 345.702 217.337 346.69L234.608 356.661C235.557 357.339 236.333 358.23 236.873 359.263C237.414 360.296 237.703 361.442 237.719 362.608C237.719 364.895 236.328 365.937 234.608 364.949Z" fill="white"/>
<path d="M104.965 72.9654L134.458 89.7428L164.573 72.0689L164.5 64.3845L164.244 64.5309L164.207 64.0003L177.6 63.9088L177.527 56.3343L190.645 56.2428L190.572 48.6865L203.709 48.5768L203.617 41.0205L216.754 40.929L216.68 33.3545L230.713 33.263L235.068 30.7015L239.898 10.8503L239.807 3.16602L237.483 10.521L216.241 7.68514L104.965 72.9654Z" fill="#1298ED"/>
<path d="M134.383 82.0577L164.498 64.3837L164.132 56.3152L177.525 56.2237L177.177 48.6492L190.57 48.5577L190.222 41.0014L203.615 40.9099L203.285 33.3354L216.678 33.2439L216.331 25.6876L230.638 25.5779L234.992 23.0164L239.804 3.16521L216.148 0L104.871 65.2985L134.383 82.0577Z" fill="#CEE8F3"/>
<path d="M154.432 70.2947C150.802 65.4018 146.135 61.372 140.765 58.4938C136.28 56.001 131.538 54.0011 126.622 52.5293L104.887 65.3365L134.38 82.114L154.432 70.2947Z" fill="#1298ED"/>
<path d="M239.005 6.49328L239.81 3.1634L235.84 2.63281L141.816 57.7954L146.775 60.6129L239.005 6.49328Z" fill="#22B0F1"/>
<path d="M33.6457 97.2059L33.3164 86.2832L36.811 93.6748L33.6457 97.2059Z" fill="#D8D8D8"/>
<path d="M51.8503 121.797C75.9645 135.482 114.898 135.208 138.811 121.175C150.795 114.149 156.723 104.983 156.632 95.8713L156.302 84.2899L154.308 86.5038C151.527 80.7954 146.24 75.4164 138.409 70.9887C114.313 57.285 75.379 57.5594 51.4661 71.5925C27.5532 85.6256 27.7179 108.093 51.8503 121.797ZM86.6128 101.36C92.8883 104.928 92.9249 110.764 86.7043 114.424C83.2113 116.231 79.3408 117.188 75.4079 117.217C71.4751 117.245 67.591 116.345 64.0721 114.588C57.7965 111.02 57.7417 105.166 63.9806 101.507C67.4763 99.706 71.3471 98.7545 75.2792 98.7291C79.2113 98.7037 83.0941 99.605 86.6128 101.36Z" fill="#1298ED"/>
<path d="M51.5062 110.875C75.6021 124.561 114.536 124.286 138.449 110.272C162.362 96.2568 162.234 73.6795 138.101 60.0672C113.969 46.455 75.0532 46.6379 51.1402 60.671C27.2273 74.704 27.392 97.1716 51.5062 110.875ZM86.2686 90.4386C92.5442 94.0063 92.5807 99.8611 86.3601 103.502C82.8671 105.31 78.9966 106.267 75.0638 106.295C71.1309 106.324 67.2468 105.423 63.7279 103.667C57.4524 100.099 57.4158 94.2442 63.7279 90.6033C67.2162 88.8017 71.0801 87.8479 75.006 87.8193C78.932 87.7907 82.8094 88.6881 86.3235 90.4386H86.2686Z" fill="#F6F5FB"/>
<path d="M79.4441 116.857C74.2223 117.761 68.8481 116.966 64.112 114.588C59.6112 112.027 58.3305 108.294 60.2516 105.037L49.2739 96.3834L37.9121 83.5762C29.13 96.3834 33.7589 111.569 51.7622 121.815C60.1391 126.326 69.2858 129.23 78.7306 130.377L79.4441 116.857Z" fill="#22B0F1"/>
<path d="M51.5062 110.875C57.2085 114.039 63.3056 116.433 69.6376 117.992C74.3759 119.174 79.1946 120.006 84.0548 120.481C103.229 122.31 123.702 118.926 138.449 110.272C162.362 96.2385 162.234 73.6795 138.101 60.0672C113.969 46.455 75.0532 46.6379 51.1402 60.671C27.2273 74.704 27.392 97.1716 51.5062 110.875ZM86.2686 90.4386C92.5442 94.0063 92.5807 99.8611 86.3601 103.502C82.8671 105.31 78.9966 106.267 75.0638 106.295C71.1309 106.324 67.2468 105.423 63.7279 103.667C57.4524 100.099 57.4158 94.2442 63.7279 90.6033C67.2162 88.8017 71.0801 87.8479 75.006 87.8193C78.932 87.7907 82.8094 88.6881 86.3235 90.4386H86.2686Z" fill="#CEE8F3"/>
<path d="M40.1038 85.9905C41.2748 79.0014 46.4709 72.1587 55.7103 66.743C76.9703 54.2651 111.605 53.9358 133.066 66.2125C143.714 72.2501 149.112 80.2455 149.221 88.2775C150.758 79.1295 145.452 69.7619 133.322 62.8643C111.861 50.6791 77.2265 50.917 55.9482 63.4132C45.2633 69.6887 39.9758 77.867 40.1038 85.9905Z" fill="#1298ED"/>
<path d="M25.5974 185.355C21.3751 185.394 17.2171 184.321 13.5403 182.245C4.90455 177.341 0.0927031 167.48 0.00122295 154.508C-0.163441 130.815 16.3213 101.779 36.7579 89.795C47.9551 83.2267 58.8778 82.3119 67.5136 87.2152C71.239 89.348 74.3276 92.4366 76.4604 96.162C79.6444 101.905 81.2539 108.387 81.1258 114.952C81.2905 138.645 64.8058 167.681 44.3691 179.665C38.7311 183.201 32.25 185.166 25.5974 185.355ZM55.5114 92.9053C50.442 93.1129 45.5181 94.6595 41.2405 97.3878C23.1823 107.963 8.61867 133.614 8.76504 154.526C8.76504 164.278 12.0766 171.468 17.9131 174.78C23.7495 178.092 31.5619 177.195 39.9781 172.255C58.018 161.68 72.5816 136.029 72.4352 115.117C72.576 110.079 71.4032 105.091 69.0322 100.645C67.6999 98.2429 65.7355 96.252 63.352 94.8877C60.9685 93.5234 58.2569 92.8378 55.5114 92.9053Z" fill="#81CC35"/>
<path d="M66.7779 112.043L83.9396 116.233L86.4096 103.426C82.9166 105.233 79.0461 106.19 75.1132 106.219C71.1803 106.248 67.2963 105.347 63.7773 103.59L66.7779 112.043Z" fill="#CEE8F3"/>
<path d="M51.5 110.874C57.2024 114.038 63.2994 116.432 69.6314 117.992C74.3697 119.173 79.1884 120.005 84.0487 120.48C103.223 122.31 123.696 118.925 138.443 110.271L68.5519 108.697L51.5 110.874Z" fill="#CEE8F3"/>
<path d="M84 120.5C78.8504 119.59 67.0952 117.471 62.1484 115.775V126.497C67.011 128.251 72.028 129.544 77.1329 130.357C93.1419 132.461 84 120.5 84 120.5Z" fill="#1298ED"/>
<path d="M66.1782 117.075C62.7998 116.099 59.4976 114.876 56.2983 113.416C46.9491 109.025 58.7683 125.253 58.7683 125.253C58.7683 125.253 61.9518 126.516 66.1782 127.815V117.075Z" fill="#22B0F1"/>
<path d="M280.585 305.274C272.29 310.063 258.734 310.063 250.438 305.274L187.075 268.691C178.779 263.902 178.779 256.075 187.075 251.285L250.438 214.703C258.734 209.913 272.29 209.913 280.585 214.703L343.915 251.266C352.21 256.055 352.21 263.882 343.915 268.672L280.552 305.254L280.585 305.274Z" fill="#29B6F6"/>
<path d="M304.052 245.268C301.894 244.022 299.028 243.341 295.993 243.341L276.4 243.36L276.367 232.048C276.4 230.277 275.186 228.602 273.028 227.356C268.577 224.786 261.361 224.786 256.909 227.356C252.458 229.926 252.458 234.093 256.909 236.663L268.51 243.36L257.112 243.36L257.112 246.514L270.937 246.514L270.937 254.574L276.4 254.574L276.4 247.955L287.9 254.594C292.351 257.164 299.567 257.164 304.019 254.594C308.503 252.004 308.503 247.838 304.052 245.268ZM260.787 234.424C258.46 233.08 258.494 230.919 260.787 229.595C263.08 228.232 266.823 228.252 269.15 229.595C270.263 230.238 270.904 231.114 270.904 232.048L270.937 240.323L260.754 234.443L260.787 234.424ZM291.811 252.335L281.661 246.475L296.026 246.475C297.578 246.475 299.095 246.845 300.208 247.487C302.535 248.831 302.501 250.992 300.208 252.316C297.881 253.698 294.138 253.679 291.811 252.335Z" fill="#99DE54"/>
<path d="M280.686 240.694L288.779 240.694L294.343 237.481L286.25 232.809L280.686 236.021L280.686 240.694Z" fill="white"/>
<path d="M306.554 269.333L277.722 285.98C272.967 288.725 267.672 289.99 261.872 289.757C256.915 289.542 251.655 287.868 246.158 284.695C240.729 281.56 237.829 278.562 237.492 275.68C237.087 272.332 239.279 269.275 244.034 266.53L266.425 253.602L266.425 248.93L258.399 248.93L236.008 261.857C229.129 265.829 226.026 270.385 226.633 275.525C227.004 278.854 228.96 282.008 232.467 284.967C233.715 285.96 235.839 287.303 238.773 288.997C241.74 290.711 244.034 291.918 245.686 292.599C251.857 295.072 258.466 296.24 265.447 296.104C273.102 295.928 279.913 294.098 285.882 290.652L314.714 274.006L306.587 269.314L306.554 269.333Z" fill="white"/>
</g>
<defs>
<clipPath id="clip0">
<rect width="498.183" height="442.27" fill="white"/>
</clipPath>
</defs>
</svg>
