<?xml version="1.0" encoding="iso-8859-1"?>
<!-- Generator: Adobe Illustrator 18.0.0, SVG Export Plug-In . SVG Version: 6.00 Build 0)  -->
<!DOCTYPE svg PUBLIC "-//W3C//DTD SVG 1.1//EN" "http://www.w3.org/Graphics/SVG/1.1/DTD/svg11.dtd">
<svg version="1.1" id="Capa_1" xmlns="http://www.w3.org/2000/svg" xmlns:xlink="http://www.w3.org/1999/xlink" x="0px" y="0px"
	 viewBox="0 0 311.265 311.265" style="enable-background:new 0 0 311.265 311.265;" xml:space="preserve">
<g>
	<path d="M151.379,82.354c0.487,0.015,0.977,0.022,1.464,0.022c0.001,0,0.001,0,0.002,0c17.285,0,36.041-9.745,47.777-24.823
		C212.736,42.011,218.24,23.367,215.723,6.4c-0.575-3.875-4.047-6.662-7.943-6.381c-17.035,1.193-36.32,11.551-47.987,25.772
		c-12.694,15.459-18.51,34.307-15.557,50.418C144.873,79.684,147.848,82.243,151.379,82.354z M171.388,35.309
		c7.236-8.82,18.949-16.106,29.924-19.028c-0.522,14.924-8.626,27.056-12.523,32.056c-7.576,9.732-19.225,16.735-30.338,18.566
		C158.672,52.062,168.14,39.265,171.388,35.309z"/>
	<path d="M282.608,226.332c-0.794-1.91-2.343-3.407-4.279-4.137c-30.887-11.646-40.56-45.12-31.807-69.461
		c4.327-12.073,12.84-21.885,24.618-28.375c1.938-1.068,3.306-2.938,3.737-5.109c0.431-2.171-0.12-4.422-1.503-6.149
		c-15.654-19.536-37.906-31.199-59.525-31.199c-15.136,0-25.382,3.886-34.422,7.314c-6.659,2.525-12.409,4.706-19.001,4.706
		c-7.292,0-13.942-2.382-21.644-5.141c-9.003-3.225-19.206-6.88-31.958-6.88c-24.577,0-49.485,14.863-65.013,38.803
		c-5.746,8.905-9.775,19.905-11.98,32.708c-6.203,36.422,4.307,79.822,28.118,116.101c13.503,20.53,30.519,41.546,54.327,41.749
		l0.486,0.002c9.917,0,16.589-2.98,23.041-5.862c6.818-3.045,13.258-5.922,24.923-5.98l0.384-0.001
		c11.445,0,17.681,2.861,24.283,5.89c6.325,2.902,12.866,5.903,22.757,5.903l0.453-0.003c23.332-0.198,41.002-22.305,55.225-43.925
		c8.742-13.391,12.071-20.235,18.699-35.003C283.373,230.396,283.402,228.242,282.608,226.332z M251.281,259.065
		c-11.329,17.222-26.433,37.008-42.814,37.148l-0.318,0.001c-6.615,0-10.979-2.003-16.503-4.537
		c-7.046-3.233-15.815-7.256-30.538-7.256l-0.463,0.001c-14.819,0.074-23.77,4.072-30.961,7.285
		c-5.701,2.547-10.204,4.558-16.923,4.558l-0.348-0.001c-16.862-0.145-31.267-18.777-41.929-34.987
		c-21.78-33.184-31.45-72.565-25.869-105.332c1.858-10.789,5.155-19.909,9.79-27.093c12.783-19.708,32.869-31.951,52.419-31.951
		c10.146,0,18.284,2.915,26.9,6.001c8.262,2.96,16.805,6.02,26.702,6.02c9.341,0,16.956-2.888,24.32-5.681
		c8.218-3.117,16.717-6.34,29.104-6.34c14.739,0,30.047,7.097,42.211,19.302c-11.002,8.02-19.102,18.756-23.655,31.461
		c-11.872,33.016,2.986,69.622,33.334,85.316C261.229,242.764,258.024,248.734,251.281,259.065z"/>
</g>
<g>
</g>
<g>
</g>
<g>
</g>
<g>
</g>
<g>
</g>
<g>
</g>
<g>
</g>
<g>
</g>
<g>
</g>
<g>
</g>
<g>
</g>
<g>
</g>
<g>
</g>
<g>
</g>
<g>
</g>
</svg>
