<?xml version="1.0" encoding="utf-8"?>
<!-- Generator: Adobe Illustrator 19.2.1, SVG Export Plug-In . SVG Version: 6.00 Build 0)  -->
<svg version="1.1" id="Layer_1" xmlns="http://www.w3.org/2000/svg" xmlns:xlink="http://www.w3.org/1999/xlink" x="0px" y="0px"
	 viewBox="0 0 338.3 331.5" style="enable-background:new 0 0 338.3 331.5;" xml:space="preserve">
<style type="text/css">
	.st0{fill:#29ABE2;}
	.st1{fill:#FFFFFF;}
</style>
<g>
	<g>
		<path class="st0" d="M306.8,261.4c0,24.6-20.1,44.7-44.7,44.7H74.2c-24.6,0-44.7-20.1-44.7-44.7V73.5c0-24.6,20.1-44.7,44.7-44.7
			H262c24.6,0,44.7,20.1,44.7,44.7V261.4z"/>
	</g>
	<g>
		<g>
			<path class="st1" d="M187.5,72.5c-6.4,0-12.4,2.5-16.9,7l-29,29.1l-29.1-29c-4.5-4.6-10.6-7.1-17-7.1
				c-13.2,0-23.9,10.7-23.9,23.9c0,13.2,10.7,23.9,23.9,23.9h34.4L113,137.2l8.1,8.1l20.5-20.5l20.7,20.7l8.1-8.1l-17-17h34.1
				c13.2,0,23.9-10.7,23.9-23.9C211.4,83.2,200.7,72.5,187.5,72.5z M95.5,108.8c-6.9,0-12.4-5.6-12.4-12.4C83,89.5,88.6,84,95.5,84
				c3.3,0,6.5,1.3,8.9,3.7l21.3,21.2H95.5z M187.5,108.8h-30.1l21.3-21.3c2.3-2.3,5.5-3.6,8.8-3.6c6.9,0,12.4,5.6,12.4,12.4
				C200,103.3,194.4,108.8,187.5,108.8z"/>
		</g>
		<polygon class="st1" points="141.1,95.4 153.1,83.4 153.1,66.9 129.1,66.9 129.1,83.4 		"/>
		<path class="st1" d="M253,130.6v85.5c0,14.1-4.6,25.2-13.8,33.2c-7.9,6.8-20,10.3-36.3,10.3c-16.1,0-28.1-3.4-36-10.3
			c-9.2-8-13.8-19.1-13.8-33.2v-66.4l-12-12l-11.9,11.9v66.4c0,20.4,7.1,36.7,21.2,49c9.1,8,20.1,13.2,32.9,15.6
			c4.4,0.7,11,1,19.7,1c8.8,0,15.3-0.3,19.5-1c15.5-2.8,28.3-9.6,38.3-20.3c10.9-11.8,16.3-26.6,16.3-44.3v-85.5H253z"/>
	</g>
</g>
</svg>
