<?xml version="1.0" encoding="utf-8"?>
<!-- Generator: Adobe Illustrator 19.2.1, SVG Export Plug-In . SVG Version: 6.00 Build 0)  -->
<svg version="1.1" id="Layer_1" xmlns="http://www.w3.org/2000/svg" xmlns:xlink="http://www.w3.org/1999/xlink" x="0px" y="0px"
	 viewBox="0 0 792 232.2" style="enable-background:new 0 0 792 232.2;" xml:space="preserve">
<style type="text/css">
	.st0{fill:#8CC63F;}
	.st1{fill:#29ABE2;}
</style>
<g>
	<g>
		<g>
			<path class="st0" d="M93.8,21c-4.2,0-8.2,1.6-11.2,4.6L63.3,44.9L44,25.6c-3-3-7-4.7-11.3-4.7c-8.7,0-15.9,7.1-15.9,15.9
				c0,8.8,7.1,15.9,15.9,15.9h22.8L44.4,63.8l5.4,5.4l13.6-13.6l13.7,13.7l5.4-5.4L71.2,52.7h22.6c8.7,0,15.9-7.1,15.9-15.9
				C109.7,28.1,102.5,21,93.8,21z M32.8,45.1c-4.5,0-8.2-3.7-8.2-8.3c0-4.5,3.7-8.2,8.2-8.2c2.2,0,4.3,0.9,5.9,2.4l14.1,14.1H32.8z
				 M93.8,45.1H73.9L88,31c1.6-1.6,3.6-2.4,5.8-2.4c4.5,0,8.3,3.7,8.3,8.2C102,41.4,98.3,45.1,93.8,45.1z"/>
		</g>
		<polygon class="st1" points="63,36.2 71,28.2 71,17.3 55.1,17.3 55.1,28.2 		"/>
		<path class="st1" d="M137.2,59.5v69.1c0,9.4-3.1,16.7-9.2,22c-5.3,4.5-13.3,6.8-24.1,6.8c-10.6,0-18.6-2.3-23.8-6.8
			c-6.1-5.3-9.2-12.7-9.2-22V72.2L63,64.2l-7.9,7.9v56.4c0,13.5,4.7,24.4,14,32.5c6,5.3,13.3,8.8,21.8,10.4
			c2.9,0.4,7.3,0.6,13.1,0.6c5.8,0,10.1-0.2,12.9-0.6c10.3-1.9,18.7-6.4,25.4-13.5c7.2-7.8,10.8-17.6,10.8-29.4V59.5H137.2z"/>
	</g>
	<g>
		<g>
			<path class="st1" d="M257,75.7c11,11,16.5,24.3,16.5,39.8s-5.5,28.8-16.5,39.8c-11,11-24.2,16.5-39.7,16.5
				c-9.8,0-20.3-2.9-31.7-8.8v-16.1c13.4,6.8,23.8,10.1,31.1,10.1h0.6c11.4,0,21.2-4.1,29.3-12.2c8.1-8.1,12.1-17.9,12.1-29.3
				c0-11.4-4-21.1-12.1-29.3c-8.1-8.1-17.9-12.1-29.3-12.1c-11.4,0-21.2,4-29.3,12.1c-8.1,8.1-12.2,17.9-12.2,29.3v101.4H161V115.5
				c0-15.5,5.5-28.8,16.5-39.8c11-10.9,24.3-16.4,39.8-16.4C232.7,59.3,246,64.8,257,75.7z"/>
			<path class="st1" d="M349.7,102.7c15.3,9.8,23,23.6,23,41.4v27.7h-15.9v-27.7c0-9.6-3.3-17.7-10-24.4
				c-6.8-6.8-14.7-10.1-23.9-10.1h-27.3v62.2h-15.9V17.3h15.9v77.5h32.8c5.4,0,10.1-2,14.1-6c4-4,5.9-8.8,5.9-14.5v-15h15.9v15
				C364.3,86,359.5,95.5,349.7,102.7z"/>
			<path class="st1" d="M480.5,158.1c-6,4.5-12.7,8-20.2,10.4c-6.9,2.2-15.1,3.3-24.5,3.3h-2.6c-1,0-2,0-3-0.1
				c-10.1-0.4-19.4-3.3-27.7-8.7c-8.9-5.7-15.8-13.5-20.7-23.4c-3.3-7.8-5-15.6-5-23.6c0-2.4,0.1-4.7,0.4-7
				c1.3-10.2,5.1-19.8,11.4-28.8c7-7.8,13.1-12.8,18.3-15c8.1-3.9,16.6-5.8,25.8-5.8c1.2,0,2.3,0,3.6,0.1
				c10.3,0.6,19.8,3.5,28.6,8.7c8.2,5.2,13.9,11.7,17,19.6c1,3,1.5,6,1.6,9v0.4c0,4.3-1.1,8.5-3.3,12.5
				c-3.7,7.3-11.1,13.2-22.2,17.5c-9,3.5-19.7,5.4-32,5.7h-2.3c-5.9,0-11.9-0.7-18-2.2c-2.4-3.1-3.6-7-3.6-11.9c0-1,0-2,0.1-3
				c8.2,2,16,3,23.3,3c14.5,0,27.4-4,38.5-11.9c2.9-2.6,4.5-5.9,4.5-9.8c0-4.2-1.9-8.2-5.6-11.9c-6-5.8-13.5-9.5-22.5-10.9
				c-2.7-0.4-5.2-0.6-7.7-0.6c-6.1,0-11.8,1.3-17.1,3.8c-7.9,3.7-14,9.1-18.2,16.2c-4,6.8-6,13.8-6,21c0,14,5.9,25.5,17.6,34.6
				c7.8,5.4,15.9,8.1,24.5,8.1c1.2,0.1,2.3,0.1,3.5,0.1c16.7,0,31.2-5.4,43.6-16.2V158.1z"/>
			<path class="st1" d="M591.4,158.1c-6,4.5-12.7,8-20.2,10.4c-6.9,2.2-15.1,3.3-24.5,3.3h-2.6c-1,0-2,0-3-0.1
				c-10.1-0.4-19.4-3.3-27.7-8.7c-8.9-5.7-15.8-13.5-20.7-23.4c-3.3-7.8-5-15.6-5-23.6c0-2.4,0.1-4.7,0.4-7
				c1.3-10.2,5.1-19.8,11.4-28.8c7-7.8,13.1-12.8,18.3-15c8.1-3.9,16.6-5.8,25.8-5.8c1.2,0,2.3,0,3.6,0.1
				c10.3,0.6,19.8,3.5,28.6,8.7c8.2,5.2,13.9,11.7,17,19.6c1,3,1.5,6,1.6,9v0.4c0,4.3-1.1,8.5-3.3,12.5
				c-3.7,7.3-11.1,13.2-22.2,17.5c-9,3.5-19.7,5.4-32,5.7h-2.3c-5.9,0-11.9-0.7-18-2.2c-2.4-3.1-3.6-7-3.6-11.9c0-1,0-2,0.1-3
				c8.2,2,16,3,23.3,3c14.5,0,27.4-4,38.5-11.9c2.9-2.6,4.5-5.9,4.5-9.8c0-4.2-1.9-8.2-5.6-11.9c-6-5.8-13.5-9.5-22.5-10.9
				c-2.7-0.4-5.2-0.6-7.7-0.6c-6.1,0-11.8,1.3-17.1,3.8c-7.9,3.7-14,9.1-18.2,16.2c-4,6.8-6,13.8-6,21c0,14,5.9,25.5,17.6,34.6
				c7.8,5.4,15.9,8.1,24.5,8.1c1.2,0.1,2.3,0.1,3.5,0.1c16.7,0,31.2-5.4,43.6-16.2V158.1z"/>
			<path class="st1" d="M696.8,75.7c11,11,16.5,24.3,16.5,39.8s-5.5,28.8-16.5,39.8c-11,11-24.2,16.5-39.7,16.5
				c-9.8,0-20.3-2.9-31.7-8.8v-16.1c13.4,6.8,23.8,10.1,31.1,10.1h0.6c11.4,0,21.2-4.1,29.3-12.2c8.1-8.1,12.1-17.9,12.1-29.3
				c0-11.4-4-21.1-12.1-29.3c-8.1-8.1-17.9-12.1-29.3-12.1c-11.4,0-21.2,4-29.3,12.1c-8.1,8.1-12.2,17.9-12.2,29.3v101.4h-14.8
				V115.5c0-15.5,5.5-28.8,16.5-39.8c11-10.9,24.3-16.4,39.8-16.4C672.5,59.3,685.8,64.8,696.8,75.7z"/>
			<path class="st0" d="M776.8,74.1c-11.4,0-21.2,4-29.2,11.9c-8.1,8.2-12.2,18.1-12.2,29.6v56.3h-15.9v-56.3
				c0-15.5,5.5-28.7,16.5-39.6c11.1-11.1,24.7-16.6,40.8-16.6V74.1z"/>
		</g>
	</g>
</g>
</svg>
