<svg width="20" height="21" viewBox="0 0 20 21" fill="none" xmlns="http://www.w3.org/2000/svg">
<path d="M19.9848 16.7905C19.9848 18.5602 18.5388 20.0063 16.769 20.0063H3.25098C1.4812 20.0063 0.0351562 18.5602 0.0351562 16.7905V3.27247C0.0351562 1.50268 1.4812 0.0566406 3.25098 0.0566406H16.7618C18.5316 0.0566406 19.9776 1.50268 19.9776 3.27247V16.7905H19.9848Z" fill="white"/>
<path fill-rule="evenodd" clip-rule="evenodd" d="M11.4006 3.19922C10.9402 3.19922 10.5085 3.37907 10.1848 3.70282L8.09847 5.79634L6.00495 3.71001C5.68121 3.37907 5.24236 3.19922 4.78192 3.19922C3.83228 3.19922 3.0625 3.969 3.0625 4.91864C3.0625 5.86828 3.83228 6.63807 4.78192 6.63807H7.25674L6.04092 7.8539L6.62365 8.43663L8.09847 6.96181L9.58768 8.45102L10.1704 7.86828L8.94739 6.64526H11.4006C12.3503 6.64526 13.1201 5.87548 13.1201 4.92584C13.1201 3.969 12.3503 3.19922 11.4006 3.19922ZM4.78192 5.81073C4.28552 5.81073 3.88984 5.40785 3.88984 4.91864C3.88264 4.42224 4.28552 4.02656 4.78192 4.02656C5.01933 4.02656 5.24955 4.12008 5.42221 4.29274L6.95459 5.81792H4.78192V5.81073ZM9.23516 5.81073H11.4006C11.897 5.81073 12.2999 5.41505 12.2927 4.91145C12.2927 4.42224 11.897 4.01936 11.4006 4.01936C11.1632 4.01936 10.933 4.11289 10.7675 4.27836L9.23516 5.81073Z" fill="#00ACED"/>
<path d="M8.06253 4.84723L8.92584 3.98393V2.79688H7.19922V3.98393L8.06253 4.84723Z" fill="#00ACED"/>
<path d="M16.1135 7.38024V13.5313C16.1135 14.5457 15.7826 15.3443 15.1207 15.9198C14.5524 16.409 13.6819 16.6608 12.5092 16.6608C11.3509 16.6608 10.4876 16.4162 9.91926 15.9198C9.25739 15.3443 8.92646 14.5457 8.92646 13.5313V8.75434L8.06315 7.89103L7.20703 8.74715V13.5241C7.20703 14.9918 7.71782 16.1644 8.73221 17.0493C9.38689 17.6248 10.1783 17.9989 11.0991 18.1716C11.4157 18.222 11.8905 18.2436 12.5164 18.2436C13.1495 18.2436 13.6171 18.222 13.9193 18.1716C15.0344 17.9702 15.9552 17.481 16.6747 16.7112C17.4588 15.8623 17.8473 14.7975 17.8473 13.5241V7.37305H16.1135V7.38024Z" fill="#00ACED"/>
</svg>
